<svg width="61" height="24" viewBox="0 0 61 24" fill="none" xmlns="http://www.w3.org/2000/svg">
<g clip-path="url(#clip0_1669_11881)">
<path d="M52.7116 14.2576C52.7116 16.5777 50.9704 18.3292 48.6863 18.3292C46.4249 18.3292 44.6836 16.5777 44.6836 14.2576C44.6836 11.9375 46.4249 10.186 48.6863 10.186C50.9704 10.186 52.7116 11.9375 52.7116 14.2576Z" fill="#6C8184"/>
<path d="M15.4753 14.2576C15.4753 16.5777 13.734 18.3291 11.45 18.3291C9.18855 18.3291 7.44727 16.5777 7.44727 14.2576C7.44727 11.9375 9.18855 10.186 11.45 10.186C13.734 10.186 15.4753 11.9375 15.4753 14.2576Z" fill="#6C8184"/>
<path fill-rule="evenodd" clip-rule="evenodd" d="M3.68008 0C1.69187 0 0.0800781 1.61177 0.0800781 3.6V20.4C0.0800781 22.3882 1.69187 24 3.68008 24H56.4801C58.4682 24 60.0801 22.3883 60.0801 20.4V3.6C60.0801 1.61178 58.4682 0 56.4801 0H3.68008ZM54.6801 8.57123H52.7126V10.5274C51.808 9.13987 50.3608 8.27554 48.4385 8.27554C45.2951 8.27554 42.7172 10.8913 42.7172 14.2578C42.7172 17.6242 45.2951 20.24 48.4385 20.24C50.3608 20.24 51.808 19.3757 52.7126 17.9881V19.9444H54.6801V8.57123ZM37.1525 20.24C33.7377 20.24 31.205 17.6242 31.205 14.2578C31.205 10.8913 33.7377 8.27551 37.1525 8.27551C39.3914 8.27551 41.291 9.4583 42.1503 11.2553L40.4994 12.2106C39.934 11.005 38.6676 10.2089 37.1525 10.2089C34.8911 10.2089 33.1725 11.9604 33.1725 14.2578C33.1725 16.5324 34.8911 18.2838 37.1525 18.2838C38.6903 18.2838 39.934 17.4877 40.5674 16.3049L42.2408 17.283C41.291 19.0572 39.3687 20.24 37.1525 20.24ZM27.2084 5.18202C27.2084 5.90989 27.7964 6.5013 28.5426 6.5013C29.2662 6.5013 29.8542 5.90989 29.8542 5.18202C29.8542 4.45415 29.2662 3.84 28.5426 3.84C27.7964 3.84 27.2084 4.45415 27.2084 5.18202ZM27.5476 8.57122V19.9442H29.515V8.57122H27.5476ZM25.8966 10.4819H22.889V16.646C22.889 18.3098 23.8107 18.267 25.6742 18.1804L25.8966 18.17V19.9442C22.5045 20.3992 20.9216 19.4893 20.9216 16.646V10.4819H18.6826V8.57119H20.9216V5.97812L22.889 5.38673V8.57119H25.8966V10.4819ZM17.443 8.57122H15.4756V10.5274C14.571 9.13986 13.1237 8.2755 11.2015 8.2755C8.05809 8.2755 5.48008 10.8913 5.48008 14.2578C5.48008 17.6242 8.05809 20.24 11.2015 20.24C13.1237 20.24 14.571 19.3757 15.4756 17.9881V19.9444H17.443V8.57122Z" fill="#6C8184"/>
</g>
<defs>
<clipPath id="clip0_1669_11881">
<rect width="60" height="24" fill="white" transform="translate(0.0800781)"/>
</clipPath>
</defs>
</svg>
