<svg width="101" height="24" viewBox="0 0 101 24" fill="none" xmlns="http://www.w3.org/2000/svg">
<g clip-path="url(#clip0_1669_11845)">
<path d="M9.60016 10.7999C10.3954 10.7999 11.0402 10.1552 11.0402 9.35992C11.0402 8.56463 10.3954 7.91992 9.60016 7.91992C8.80487 7.91992 8.16016 8.56463 8.16016 9.35992C8.16016 10.1552 8.80487 10.7999 9.60016 10.7999Z" fill="#6C8184"/>
<path d="M9.35992 19.1998C10.1552 19.1998 10.7999 18.5551 10.7999 17.7598C10.7999 16.9646 10.1552 16.3198 9.35992 16.3198C8.56463 16.3198 7.91992 16.9646 7.91992 17.7598C7.91992 18.5551 8.56463 19.1998 9.35992 19.1998Z" fill="#6C8184"/>
<path d="M8.15969 6.96C8.42478 6.96 8.63969 6.74509 8.63969 6.48C8.63969 6.21491 8.42478 6 8.15969 6C7.8946 6 7.67969 6.21491 7.67969 6.48C7.67969 6.74509 7.8946 6.96 8.15969 6.96Z" fill="#6C8184"/>
<path d="M7.56117 13.68C7.76 13.68 7.92117 13.5188 7.92117 13.32C7.92117 13.1211 7.76 12.96 7.56117 12.96C7.36234 12.96 7.20117 13.1211 7.20117 13.32C7.20117 13.5188 7.36234 13.68 7.56117 13.68Z" fill="#6C8184"/>
<path d="M16.8014 14.0398C17.0002 14.0398 17.1614 13.8787 17.1614 13.6798C17.1614 13.481 17.0002 13.3198 16.8014 13.3198C16.6026 13.3198 16.4414 13.481 16.4414 13.6798C16.4414 13.8787 16.6026 14.0398 16.8014 14.0398Z" fill="#6C8184"/>
<path d="M13.3209 19.4402C13.5198 19.4402 13.6809 19.2791 13.6809 19.0802C13.6809 18.8814 13.5198 18.7202 13.3209 18.7202C13.1221 18.7202 12.9609 18.8814 12.9609 19.0802C12.9609 19.2791 13.1221 19.4402 13.3209 19.4402Z" fill="#6C8184"/>
<path d="M12.48 12C12.7451 12 12.96 11.7851 12.96 11.52C12.96 11.2549 12.7451 11.04 12.48 11.04C12.2149 11.04 12 11.2549 12 11.52C12 11.7851 12.2149 12 12.48 12Z" fill="#6C8184"/>
<path d="M10.6798 14.64C11.1438 14.64 11.5198 14.2639 11.5198 13.8C11.5198 13.336 11.1438 12.96 10.6798 12.96C10.2159 12.96 9.83984 13.336 9.83984 13.8C9.83984 14.2639 10.2159 14.64 10.6798 14.64Z" fill="#6C8184"/>
<path d="M15.8411 6.48004C16.2388 6.48004 16.5611 6.15768 16.5611 5.76004C16.5611 5.3624 16.2388 5.04004 15.8411 5.04004C15.4434 5.04004 15.1211 5.3624 15.1211 5.76004C15.1211 6.15768 15.4434 6.48004 15.8411 6.48004Z" fill="#6C8184"/>
<path d="M15.5405 11.8799C16.6341 11.8799 17.5205 10.9934 17.5205 9.89992C17.5205 8.8064 16.6341 7.91992 15.5405 7.91992C14.447 7.91992 13.5605 8.8064 13.5605 9.89992C13.5605 10.9934 14.447 11.8799 15.5405 11.8799Z" fill="#6C8184"/>
<path d="M12.121 7.43979C12.7175 7.43979 13.201 6.95626 13.201 6.35979C13.201 5.76331 12.7175 5.27979 12.121 5.27979C11.5245 5.27979 11.041 5.76331 11.041 6.35979C11.041 6.95626 11.5245 7.43979 12.121 7.43979Z" fill="#6C8184"/>
<path d="M14.7609 17.7602C15.755 17.7602 16.5609 16.9542 16.5609 15.9602C16.5609 14.9661 15.755 14.1602 14.7609 14.1602C13.7669 14.1602 12.9609 14.9661 12.9609 15.9602C12.9609 16.9542 13.7669 17.7602 14.7609 17.7602Z" fill="#6C8184"/>
<path d="M4.47167 22.1998C4.03327 22.2096 3.59581 22.155 3.17327 22.0378C2.87222 21.9528 2.60033 21.7868 2.38727 21.5578C2.1618 21.2978 2.00176 20.9874 1.92047 20.653C1.80198 20.1645 1.74713 19.6628 1.75727 19.1602V15.2002C1.75727 14.4634 1.64327 13.927 1.40927 13.5622C1.18819 13.2351 0.859594 12.9957 0.480469 12.8854V10.885C1.12007 10.6702 1.76087 10.123 1.76087 8.79581V4.8358C1.76087 3.7102 1.96847 2.9158 2.37647 2.461C2.78447 2.0062 3.50327 1.7998 4.53407 1.7998H5.88047V3.775H5.83487C5.56894 3.77197 5.30311 3.78721 5.03927 3.8206C4.80065 3.84674 4.57597 3.94609 4.39607 4.105C4.22752 4.2739 4.117 4.492 4.08047 4.7278C4.03663 4.98582 4.01695 5.24734 4.02167 5.509V9.00581C4.02516 9.3552 4.00471 9.70441 3.96047 10.051C3.93189 10.2738 3.86999 10.491 3.77687 10.6954C3.69064 10.8762 3.57092 11.0391 3.42407 11.1754C3.21834 11.3641 3.00026 11.5389 2.77127 11.6986L2.32367 12.0154L2.78087 12.3178C3.00512 12.4607 3.21245 12.6286 3.39887 12.8182C3.54857 12.9754 3.67249 13.1552 3.76607 13.351C3.86449 13.563 3.93005 13.7889 3.96047 14.0206C4.0028 14.3452 4.02284 14.6724 4.02047 14.9998V18.4966C4.01626 18.7515 4.03595 19.0062 4.07927 19.2574C4.11421 19.4868 4.21799 19.7002 4.37687 19.8694C4.54649 20.0313 4.76187 20.1368 4.99367 20.1718C5.26495 20.216 5.53966 20.2356 5.81447 20.2306H5.88047V22.1998H4.47167Z" fill="#6C8184"/>
<path d="M20.4889 22.2C20.9272 22.2098 21.3648 22.1552 21.7873 22.038C22.0884 21.953 22.3603 21.7869 22.5733 21.558C22.7971 21.2982 22.9558 20.9889 23.0365 20.6556C23.1549 20.1671 23.2099 19.6653 23.1997 19.1628V15.2028C23.1997 14.466 23.3137 13.9296 23.5477 13.5648C23.7691 13.2356 24.0991 12.9948 24.4801 12.8844V10.8852C23.8405 10.6704 23.1997 10.1232 23.1997 8.79599V4.83599C23.1997 3.71039 22.9921 2.91599 22.5841 2.46119C22.1761 2.00639 21.4573 1.79639 20.4241 1.79639H19.0801V3.77519H19.1257C19.3916 3.77215 19.6574 3.78739 19.9213 3.82079C20.1598 3.84692 20.3846 3.94627 20.5645 4.10519C20.7331 4.27409 20.8436 4.49219 20.8801 4.72799C20.9239 4.986 20.9436 5.24753 20.9389 5.50919V9.00599C20.9342 9.35529 20.9534 9.70451 20.9965 10.0512C21.025 10.274 21.087 10.4912 21.1801 10.6956C21.2664 10.8764 21.386 11.0393 21.5329 11.1756C21.7386 11.3643 21.9567 11.5391 22.1857 11.6988L22.6333 12.0156L22.1761 12.318C21.9518 12.4609 21.7446 12.6288 21.5581 12.8184C21.4084 12.9756 21.2845 13.1553 21.1909 13.3512C21.092 13.5647 21.0265 13.7922 20.9965 14.0256C20.9552 14.3483 20.936 14.6735 20.9389 14.9988V18.4956C20.9431 18.7505 20.9234 19.0052 20.8801 19.2564C20.8514 19.4889 20.7458 19.7052 20.5801 19.8708C20.4145 20.0365 20.1982 20.1421 19.9657 20.1708C19.6944 20.2149 19.4197 20.2346 19.1449 20.2296H19.0801V22.2H20.4889Z" fill="#6C8184"/>
<path fill-rule="evenodd" clip-rule="evenodd" d="M57.3127 18.4978C57.0277 18.9411 56.6802 19.2892 56.2703 19.5419C55.8513 19.7977 55.3577 19.9255 54.7896 19.9255C54.2001 19.9255 53.671 19.8083 53.2023 19.574C52.7406 19.3396 52.3429 18.9916 52.0092 18.53C51.6825 18.0683 51.4339 17.4967 51.2634 16.8148C51.093 16.1259 51.0078 15.3269 51.0078 14.4179V13.5124C51.0078 12.5679 51.093 11.7512 51.2634 11.0623C51.4339 10.3663 51.6825 9.78749 52.0092 9.32587C52.3429 8.86425 52.7442 8.52335 53.2129 8.3032C53.6817 8.08303 54.2107 7.97296 54.8002 7.97296C55.3755 7.97296 55.8726 8.10433 56.2917 8.36711C56.6368 8.57775 56.9387 8.8631 57.1971 9.22319V3.34961H59.6793V19.7125L57.4314 19.723L57.3127 18.4978ZM57.1971 11.2378C57.13 11.102 57.0553 10.976 56.9734 10.8599C56.803 10.6184 56.5935 10.4302 56.3449 10.2953C56.1034 10.1532 55.8193 10.0822 55.4927 10.0822C55.1304 10.0822 54.8215 10.1532 54.5658 10.2953C54.3102 10.4302 54.1042 10.6397 53.9479 10.9238C53.7917 11.2008 53.6746 11.5559 53.5965 11.9891C53.5254 12.4151 53.4899 12.923 53.4899 13.5124V14.4179C53.4899 15.0074 53.5254 15.5152 53.5965 15.9413C53.6675 16.3675 53.7811 16.7189 53.9374 16.9959C54.0936 17.2658 54.2995 17.4682 54.5553 17.6031C54.8109 17.731 55.1199 17.7949 55.482 17.7949C55.9366 17.7949 56.3058 17.6812 56.5899 17.4541C56.8434 17.2561 57.0459 16.9989 57.1971 16.6826V11.2378Z" fill="#6C8184"/>
<path fill-rule="evenodd" clip-rule="evenodd" d="M63.9888 19.5954C64.5712 19.8156 65.2353 19.9256 65.981 19.9256C66.6414 19.9256 67.2167 19.8404 67.7067 19.67C68.2038 19.4995 68.6264 19.2829 68.9744 19.0201C69.3224 18.7502 69.5993 18.4769 69.8054 18.1999L68.7081 16.6765C68.4027 17.0245 68.0405 17.3086 67.6215 17.5288C67.2095 17.7418 66.716 17.8483 66.1408 17.8483C65.7501 17.8483 65.4057 17.7916 65.1074 17.6779C64.8162 17.5572 64.5677 17.3725 64.3617 17.124C64.1558 16.8683 63.9995 16.5416 63.893 16.1438C63.7966 15.7585 63.7469 15.2898 63.744 14.7377H69.9332V13.4914C69.9332 12.5965 69.848 11.8046 69.6774 11.1157C69.5141 10.4269 69.2585 9.84805 68.9105 9.37932C68.5696 8.9106 68.1328 8.55904 67.6002 8.32468C67.0676 8.09032 66.439 7.97314 65.7147 7.97314C65.0754 7.97314 64.4824 8.08322 63.9356 8.30338C63.3958 8.52354 62.9271 8.86088 62.5294 9.3154C62.1317 9.76993 61.8192 10.3523 61.592 11.0625C61.3718 11.7656 61.2617 12.6036 61.2617 13.5766V14.6844C61.2617 15.5437 61.3683 16.3001 61.5813 16.9535C61.7944 17.5998 62.1033 18.1466 62.5082 18.594C62.9129 19.0344 63.4065 19.3681 63.9888 19.5954ZM63.7626 12.8628C63.7828 12.5064 63.8192 12.1903 63.8717 11.9147C63.9569 11.4602 64.0776 11.098 64.2339 10.8281C64.3972 10.5582 64.6031 10.3629 64.8518 10.2422C65.1003 10.1215 65.3844 10.0611 65.704 10.0611C66.1443 10.0611 66.4887 10.1641 66.7373 10.37C66.9929 10.5689 67.1776 10.8601 67.2912 11.2436C67.4049 11.62 67.4688 12.0709 67.483 12.5965V12.8628H63.7626Z" fill="#6C8184"/>
<path fill-rule="evenodd" clip-rule="evenodd" d="M40.7852 14.4181V13.4914C40.7852 12.5965 40.8952 11.8046 41.1154 11.1157C41.3356 10.4269 41.6481 9.8516 42.0528 9.38997C42.4648 8.92124 42.9477 8.5697 43.5016 8.33534C44.0555 8.09388 44.6663 7.97314 45.3339 7.97314C46.0157 7.97314 46.6336 8.09388 47.1875 8.33534C47.7485 8.5697 48.2315 8.92124 48.6363 9.38997C49.0482 9.8516 49.3642 10.4269 49.5844 11.1157C49.8046 11.8046 49.9146 12.5965 49.9146 13.4914V14.4181C49.9146 15.313 49.8046 16.1048 49.5844 16.7938C49.3642 17.4826 49.0482 18.0614 48.6363 18.5302C48.2315 18.9918 47.7521 19.3398 47.1982 19.5742C46.6443 19.8085 46.0299 19.9256 45.3552 19.9256C44.6877 19.9256 44.0733 19.8085 43.5123 19.5742C42.9584 19.3398 42.4754 18.9918 42.0635 18.5302C41.6516 18.0614 41.3356 17.4826 41.1154 16.7938C40.8952 16.1048 40.7852 15.313 40.7852 14.4181ZM43.2672 13.4914V14.4181C43.2672 14.9934 43.3169 15.4976 43.4164 15.9308C43.5159 16.357 43.6578 16.712 43.8425 16.9961C44.0272 17.2802 44.2473 17.4932 44.503 17.6353C44.7587 17.7773 45.0428 17.8483 45.3552 17.8483C45.7032 17.8483 46.005 17.7773 46.2608 17.6353C46.5234 17.4932 46.7402 17.2802 46.9106 16.9961C47.088 16.712 47.2194 16.357 47.3048 15.9308C47.39 15.4976 47.4326 14.9934 47.4326 14.4181V13.4914C47.4326 12.9232 47.3829 12.426 47.2834 11.9999C47.1839 11.5667 47.042 11.2081 46.8573 10.924C46.6726 10.6328 46.4489 10.4162 46.1861 10.2742C45.9305 10.1321 45.6464 10.0611 45.3339 10.0611C45.0285 10.0611 44.748 10.1321 44.4923 10.2742C44.2438 10.4162 44.0272 10.6328 43.8425 10.924C43.6578 11.2081 43.5159 11.5667 43.4164 11.9999C43.3169 12.426 43.2672 12.9232 43.2672 13.4914Z" fill="#6C8184"/>
<path d="M39.724 14.6523H37.1459C37.1033 15.4335 36.9933 16.0514 36.8157 16.5059C36.6382 16.9604 36.3647 17.2835 35.9955 17.4753C35.6332 17.6671 35.1467 17.7629 34.536 17.7629C34.0246 17.7629 33.5986 17.6671 33.2577 17.4753C32.9168 17.2765 32.6433 16.9888 32.4374 16.6124C32.2314 16.229 32.0823 15.7637 31.99 15.2169C31.8976 14.6701 31.8515 14.0415 31.8515 13.3313V10.5616C31.8515 9.82299 31.9047 9.18027 32.0112 8.63343C32.1249 8.07947 32.2918 7.6214 32.512 7.2592C32.7392 6.8899 33.0268 6.61293 33.3748 6.42827C33.7299 6.24363 34.1525 6.1513 34.6425 6.1513C35.232 6.1513 35.7008 6.25429 36.0488 6.46024C36.4038 6.6662 36.6665 7.00353 36.837 7.47226C37.0145 7.93389 37.1211 8.55176 37.1566 9.32587H39.7346C39.6707 8.18246 39.4398 7.21304 39.0422 6.41763C38.6445 5.62221 38.0799 5.01855 37.3484 4.60664C36.6168 4.19473 35.7149 3.98877 34.6425 3.98877C33.8045 3.98877 33.0516 4.13791 32.3841 4.43619C31.7236 4.72737 31.1626 5.15704 30.701 5.72519C30.2393 6.29335 29.8842 6.98578 29.6357 7.8025C29.3942 8.61922 29.2734 9.54602 29.2734 10.5829V13.3313C29.2734 14.3683 29.3907 15.295 29.625 16.1117C29.8665 16.9285 30.2145 17.6209 30.669 18.1891C31.1235 18.7501 31.6739 19.1798 32.3202 19.4781C32.9735 19.7763 33.7121 19.9255 34.536 19.9255C35.6226 19.9255 36.5423 19.7195 37.2951 19.3076C38.055 18.8957 38.6374 18.2991 39.0422 17.5179C39.4469 16.7296 39.6742 15.7744 39.724 14.6523Z" fill="#6C8184"/>
<path fill-rule="evenodd" clip-rule="evenodd" d="M92.4375 3.34961H93.6305V9.78239C93.751 9.55911 93.886 9.35367 94.0354 9.16608C94.3407 8.78257 94.703 8.48784 95.122 8.28189C95.5409 8.07593 96.031 7.97296 96.592 7.97296C97.1887 7.97296 97.7177 8.07593 98.1794 8.28189C98.641 8.48784 99.0316 8.80743 99.3512 9.24065C99.6707 9.67386 99.9122 10.2385 100.075 10.9344C100.239 11.6233 100.321 12.4507 100.321 13.4165V14.4925C100.321 15.4228 100.239 16.229 100.075 16.9107C99.9122 17.5925 99.6707 18.1571 99.3512 18.6045C99.0316 19.052 98.641 19.3857 98.1794 19.6059C97.7248 19.8261 97.2028 19.9361 96.6134 19.9361C96.0381 19.9361 95.5339 19.8332 95.1007 19.6271C94.6675 19.4212 94.2981 19.1336 93.9928 18.7643C93.85 18.5876 93.7203 18.3945 93.6035 18.1852L93.5453 19.7125H92.4375V3.34961ZM93.6305 11.157V16.8939C93.7019 17.0624 93.7837 17.2277 93.8756 17.3901C94.117 17.8091 94.4438 18.1499 94.8556 18.4127C95.2676 18.6685 95.7718 18.7963 96.3683 18.7963C96.8513 18.7963 97.2632 18.7111 97.6041 18.5407C97.9521 18.3631 98.2397 18.0968 98.467 17.7416C98.6942 17.3865 98.8611 16.9426 98.9677 16.4101C99.0742 15.8703 99.1275 15.2311 99.1275 14.4925V13.4165C99.1275 12.685 99.0742 12.0495 98.9677 11.5097C98.8682 10.9629 98.7049 10.5119 98.4776 10.1568C98.2575 9.8017 97.9699 9.53892 97.6148 9.36848C97.2668 9.19093 96.8441 9.10216 96.3471 9.10216C95.857 9.10216 95.4345 9.19449 95.0793 9.37913C94.7314 9.55668 94.4402 9.79459 94.2058 10.0929C93.9785 10.3912 93.7975 10.7178 93.6626 11.0729C93.6517 11.101 93.641 11.129 93.6305 11.157Z" fill="#6C8184"/>
<path fill-rule="evenodd" clip-rule="evenodd" d="M88.0114 18.9456C88.2781 18.685 88.5016 18.4081 88.6817 18.115C88.6904 18.3257 88.7048 18.5422 88.725 18.7645C88.7605 19.148 88.8174 19.464 88.8955 19.7126H90.1525V19.5742C90.0602 19.3043 89.9856 18.9563 89.9288 18.5302C89.8792 18.104 89.8543 17.6886 89.8543 17.2837V11.3927C89.8543 10.5618 89.7016 9.89421 89.3962 9.38997C89.098 8.88573 88.6824 8.52354 88.1498 8.30338C87.6172 8.08322 87.0064 7.97314 86.3176 7.97314C85.7564 7.97314 85.2451 8.06546 84.7835 8.25012C84.3289 8.43476 83.9383 8.68688 83.6117 9.00646C83.285 9.31896 83.0329 9.68115 82.8553 10.0931C82.6777 10.4979 82.589 10.9204 82.589 11.3608L83.7715 11.3714C83.7715 10.924 83.8745 10.5298 84.0804 10.1889C84.2935 9.84094 84.5882 9.57108 84.9646 9.37932C85.3481 9.18046 85.7849 9.08104 86.2748 9.08104C86.7934 9.08104 87.2302 9.15916 87.5852 9.3154C87.9403 9.47164 88.2102 9.72021 88.3948 10.0611C88.5794 10.3949 88.6718 10.8317 88.6718 11.3714V12.98H86.7223C85.9979 12.98 85.3624 13.0723 84.8154 13.257C84.2686 13.4416 83.8141 13.7009 83.4518 14.0346C83.0897 14.3614 82.8163 14.7484 82.6316 15.1958C82.454 15.6432 82.3652 16.1333 82.3652 16.6658C82.3652 17.3832 82.4932 17.9868 82.7488 18.4769C83.0116 18.9668 83.3773 19.3326 83.846 19.5742C84.3218 19.8156 84.8759 19.9363 85.5079 19.9363C86.0334 19.9363 86.5057 19.844 86.9248 19.6594C87.3437 19.4747 87.706 19.2367 88.0114 18.9456ZM88.2776 17.4968C88.4425 17.27 88.5739 17.0362 88.6718 16.7952V13.992H86.9034C86.3495 13.992 85.863 14.0524 85.444 14.1731C85.0249 14.2938 84.6734 14.4678 84.3893 14.6951C84.1123 14.9224 83.9028 15.1922 83.7608 15.5047C83.6188 15.8172 83.5477 16.1723 83.5477 16.57C83.5477 17.0813 83.6294 17.5003 83.7928 17.8271C83.9561 18.1466 84.194 18.3845 84.5065 18.5408C84.8261 18.6899 85.206 18.7645 85.6464 18.7645C86.2288 18.7645 86.7401 18.6509 87.1804 18.4236C87.6278 18.1892 87.9936 17.8804 88.2776 17.4968Z" fill="#6C8184"/>
<path d="M81.1863 19.7128V18.5729H74.8158V4.20215H73.5801V19.7128H81.1863Z" fill="#6C8184"/>
</g>
<defs>
<clipPath id="clip0_1669_11845">
<rect width="99.96" height="24" fill="white" transform="translate(0.480469)"/>
</clipPath>
</defs>
</svg>
