<svg width="108" height="24" viewBox="0 0 108 24" fill="none" xmlns="http://www.w3.org/2000/svg">
<g clip-path="url(#clip0_1669_11821)">
<mask id="mask0_1669_11821" style="mask-type:luminance" maskUnits="userSpaceOnUse" x="0" y="0" width="108" height="24">
<path d="M107.48 0H0.0800781V24H107.48V0Z" fill="white"/>
</mask>
<g mask="url(#mask0_1669_11821)">
<path d="M9.75822 23.9399H7.92383V-0.0600586L9.75822 1.46861V23.9399Z" fill="#6C8184"/>
<path d="M3.94922 23.94H5.78361V4.5918L3.94922 6.12045V23.94Z" fill="#6C8184"/>
<path d="M1.96135 23.94H0.126953V10.7064L1.96135 9.17773V23.94Z" fill="#6C8184"/>
<path d="M17.5532 23.94H15.7188V9.17773L17.5532 10.7064V23.94Z" fill="#6C8184"/>
<path d="M11.8984 23.94H13.7328V6.12045L11.8984 4.5918V23.94Z" fill="#6C8184"/>
<path fill-rule="evenodd" clip-rule="evenodd" d="M37.5121 17.1758V16.3507H35.4724V17.1392C35.4724 18.8994 36.0421 20.4717 38.4962 20.4717C40.9504 20.4717 41.6037 18.6978 41.6037 16.8045C41.6037 14.5584 41.0007 13.7012 39.0322 12.2205C37.8764 11.3633 37.7004 10.8453 37.7004 9.96061C37.7004 9.0759 37.8555 8.49373 38.538 8.49373C39.2207 8.49373 39.3757 9.07132 39.3757 9.98812V10.6436H41.3859V9.92853C41.3859 8.47998 40.9588 6.71973 38.5841 6.71973C36.2096 6.71973 35.686 8.49373 35.686 10.2494C35.686 12.2251 36.4441 12.9585 37.8555 14.0862C39.2668 15.2139 39.5726 15.6585 39.5726 17.0934C39.5726 17.9596 39.3464 18.7207 38.5757 18.7207C37.8052 18.7207 37.5121 18.1659 37.5121 17.1758ZM25.6559 20.2791L26.1124 16.7127H28.1437L28.6629 20.2791H30.7821L28.5833 6.93508H25.7187L23.5996 20.2791H25.6559ZM27.1594 8.89244C27.3101 10.4006 27.595 12.5505 27.8965 14.8196H26.3805C26.421 14.5117 26.465 14.1823 26.5103 13.8414L26.5104 13.841C26.7561 11.999 27.0465 9.82073 27.0924 8.89244H27.1594ZM52.9155 20.2791H51.3324C51.2748 19.9492 51.2385 19.6153 51.2235 19.2798C50.8592 20.1691 50.0927 20.4763 49.2467 20.4763C47.3119 20.4763 46.6879 19.0552 46.6879 16.8091V10.5244C46.6879 8.34697 47.5255 6.74257 49.808 6.74257C52.5679 6.74257 52.861 8.8008 52.861 10.2356V10.6665H50.8215V10.1347C50.8215 9.42881 50.7209 8.61744 49.7954 8.61744C49.0541 8.61744 48.74 9.13542 48.74 10.2035V17.029C48.74 18.0972 49.0457 18.6518 49.7787 18.6518C50.6582 18.6518 50.8718 17.9092 50.8718 16.534V14.5858H49.7326V12.8163H52.9155V20.2791ZM59.9936 20.2791L60.4543 16.7127H62.4687L62.9879 20.2791H65.0987L62.9 6.93505H60.0354L57.9415 20.2791H59.9936ZM61.5012 8.89242C61.652 10.4006 61.9367 12.5504 62.2383 14.8195H60.7055C60.7461 14.5116 60.79 14.182 60.8355 13.841V13.8406L60.8356 13.8404C61.0811 11.9985 61.3715 9.8206 61.4175 8.89242H61.5012ZM72.0338 14.3152V20.2744H70.0069V6.93505H72.8128C74.8146 6.93505 75.9957 7.75101 75.9957 10.1439V10.6527C75.9957 12.7017 75.1581 13.2243 74.6596 13.4352C75.4261 13.8019 75.8617 14.352 75.8617 16.1856C75.8282 17.553 75.8687 18.9214 75.9831 20.2837H74.0231C73.8748 19.591 73.8827 17.8594 73.8877 16.7768C73.8884 16.6056 73.8891 16.4506 73.8891 16.3185C73.8891 14.6912 73.6797 14.3199 72.5028 14.3199L72.0338 14.3152ZM72.0338 12.6146H72.4987C73.5707 12.6146 73.9644 12.202 73.9644 10.7535V10.2951C73.9644 9.26373 73.7551 8.63572 72.6075 8.63572H72.0338V12.6146ZM84.2505 6.93505H81.4403V20.2791H84.2505C87.3747 20.2791 87.7181 18.0375 87.7181 15.9976V10.8819C87.7181 8.40193 87.0397 6.93505 84.2505 6.93505ZM84.1375 18.528H83.4883V8.70448H84.1249C85.465 8.70448 85.6744 9.49293 85.6744 10.7169V16.2772C85.6744 17.657 85.4734 18.528 84.1375 18.528ZM95.2144 6.93505V20.2791H93.1874V6.93505H95.2144ZM102.242 20.2791L102.703 16.7127H104.725L105.241 20.2791H107.36L105.161 6.93505H102.296L100.177 20.2791H102.242ZM104.377 14.0138C104.412 14.2801 104.447 14.549 104.482 14.8195H102.958C102.983 14.631 103.01 14.4343 103.037 14.2318C103.294 12.3181 103.621 9.88733 103.67 8.89242H103.745C103.878 10.2207 104.118 12.0469 104.377 14.0138Z" fill="#6C8184"/>
</g>
</g>
<defs>
<clipPath id="clip0_1669_11821">
<rect width="107.4" height="24" fill="white" transform="translate(0.0800781)"/>
</clipPath>
</defs>
</svg>
