<svg width="96" height="24" viewBox="0 0 96 24" fill="none" xmlns="http://www.w3.org/2000/svg">
<g clip-path="url(#clip0_1669_11808)">
<path d="M2.59016 19.9309C4.39736 22.9309 8.74616 23.0041 10.551 19.9981C11.1224 19.0461 11.4435 17.965 11.4846 16.8553L11.5422 15.3181C11.5422 15.3181 8.80016 17.8201 7.66976 17.6665C7.28816 17.6149 7.57856 16.9069 7.71656 16.5565C8.24096 15.2365 11.427 11.9893 11.427 11.9893C11.427 11.9893 11.6802 7.38974 12.1302 6.12854C12.363 5.47574 12.633 5.17694 12.8802 5.05814C13.1274 5.17814 13.3974 5.47574 13.6302 6.12854C14.0802 7.38974 14.3334 11.9893 14.3334 11.9893C14.3334 11.9893 17.5194 15.2293 18.0438 16.5565C18.1818 16.9069 18.4722 17.6149 18.0906 17.6665C16.959 17.8201 14.2182 15.3181 14.2182 15.3181L14.2758 16.8553C14.3191 18.0275 14.675 19.1669 15.3066 20.1553C17.1186 22.9897 21.3246 22.9153 23.0946 20.0557C24.2488 18.1908 24.8667 16.0438 24.8802 13.8505C24.9294 7.33694 19.6818 1.91414 13.1682 1.76174C11.021 1.71032 8.89935 2.23613 7.02468 3.28429C5.15001 4.33244 3.591 5.86453 2.51037 7.72068C1.42974 9.57681 0.867082 11.689 0.881116 13.8367C0.89515 15.9845 1.48536 18.0891 2.59016 19.9309Z" fill="#6C8184"/>
<mask id="mask0_1669_11808" style="mask-type:luminance" maskUnits="userSpaceOnUse" x="0" y="1" width="25" height="22">
<path d="M2.59016 19.9309C4.39736 22.9309 8.74616 23.0041 10.551 19.9981C11.1224 19.0461 11.4435 17.965 11.4846 16.8553L11.5422 15.3181C11.5422 15.3181 8.80016 17.8201 7.66976 17.6665C7.28816 17.6149 7.57856 16.9069 7.71656 16.5565C8.24096 15.2365 11.427 11.9893 11.427 11.9893C11.427 11.9893 11.6802 7.38974 12.1302 6.12854C12.363 5.47574 12.633 5.17694 12.8802 5.05814C13.1274 5.17814 13.3974 5.47574 13.6302 6.12854C14.0802 7.38974 14.3334 11.9893 14.3334 11.9893C14.3334 11.9893 17.5194 15.2293 18.0438 16.5565C18.1818 16.9069 18.4722 17.6149 18.0906 17.6665C16.959 17.8201 14.2182 15.3181 14.2182 15.3181L14.2758 16.8553C14.3191 18.0275 14.675 19.1669 15.3066 20.1553C17.1186 22.9897 21.3246 22.9153 23.0946 20.0557C24.2488 18.1908 24.8667 16.0438 24.8802 13.8505C24.9294 7.33694 19.6818 1.91414 13.1682 1.76174C11.021 1.71032 8.89935 2.23613 7.02468 3.28429C5.15001 4.33244 3.591 5.86453 2.51037 7.72068C1.42974 9.57681 0.867082 11.689 0.881116 13.8367C0.89515 15.9845 1.48536 18.0891 2.59016 19.9309Z" fill="white"/>
</mask>
<g mask="url(#mask0_1669_11808)">
<path d="M2.59016 19.9309C4.39736 22.9309 8.74616 23.0041 10.551 19.9981C11.1224 19.0461 11.4435 17.965 11.4846 16.8553L11.5422 15.3181C11.5422 15.3181 8.80016 17.8201 7.66976 17.6665C7.28816 17.6149 7.57856 16.9069 7.71656 16.5565C8.24096 15.2365 11.427 11.9893 11.427 11.9893C11.427 11.9893 11.6802 7.38974 12.1302 6.12854C12.363 5.47574 12.633 5.17694 12.8802 5.05814C13.1274 5.17814 13.3974 5.47574 13.6302 6.12854C14.0802 7.38974 14.3334 11.9893 14.3334 11.9893C14.3334 11.9893 17.5194 15.2293 18.0438 16.5565C18.1818 16.9069 18.4722 17.6149 18.0906 17.6665C16.959 17.8201 14.2182 15.3181 14.2182 15.3181L14.2758 16.8553C14.3191 18.0275 14.675 19.1669 15.3066 20.1553C17.1186 22.9897 21.3246 22.9153 23.0946 20.0557C24.2488 18.1908 24.8667 16.0438 24.8802 13.8505C24.9294 7.33694 19.6818 1.91414 13.1682 1.76174C11.021 1.71032 8.89935 2.23613 7.02468 3.28429C5.15001 4.33244 3.591 5.86453 2.51037 7.72068C1.42974 9.57681 0.867082 11.689 0.881116 13.8367C0.89515 15.9845 1.48536 18.0891 2.59016 19.9309Z" fill="#6C8184"/>
</g>
<path d="M35.6223 10.4735H38.6055V7.19991H35.6223V3.50391L32.2167 4.53351V7.19991H29.9199V10.4735H32.2167V15.9647C32.2167 19.5287 33.8271 20.9279 38.6055 20.3999V17.3111C36.6519 17.4167 35.6223 17.3903 35.6223 15.9647V10.4735Z" fill="#6C8184"/>
<path fill-rule="evenodd" clip-rule="evenodd" d="M55.1497 17.681C53.3545 17.681 51.9025 16.9418 51.4273 15.1994H61.3801C61.4593 14.7506 61.5121 14.3018 61.5121 13.8002C61.5121 9.91937 58.7401 6.83057 54.8329 6.83057C50.6881 6.83057 47.8633 9.86657 47.8633 13.8002C47.8633 17.7338 50.6617 20.7698 55.0969 20.7698C57.6313 20.7698 59.6113 19.7402 60.8521 17.945L58.1065 16.361C57.5257 17.1266 56.4697 17.681 55.1497 17.681ZM58.1065 12.5594H51.3745C51.7705 10.8698 53.0113 9.89297 54.8329 9.89297C56.2585 9.89297 57.6841 10.6586 58.1065 12.5594Z" fill="#6C8184"/>
<path fill-rule="evenodd" clip-rule="evenodd" d="M88.7881 7.20017H85.3825V8.75777C84.4321 7.56977 83.0065 6.83057 81.0793 6.83057C77.5681 6.83057 74.6641 9.86657 74.6641 13.8002C74.6641 17.7338 77.5681 20.7698 81.0793 20.7698C83.0065 20.7698 84.4321 20.0306 85.3825 18.8426V20.4002H88.7881V7.20017ZM85.3825 13.8002C85.3825 16.0178 83.8249 17.5226 81.7129 17.5226C79.6273 17.5226 78.0697 16.0178 78.0697 13.8002C78.0697 11.5826 79.6273 10.0778 81.7129 10.0778C83.8249 10.0778 85.3825 11.5826 85.3825 13.8002Z" fill="#6C8184"/>
<path d="M90.8203 18.4994C90.8203 19.7402 91.8235 20.7434 93.0643 20.7434C94.3051 20.7434 95.3083 19.7402 95.3083 18.4994C95.3083 17.2586 94.3051 16.2554 93.0643 16.2554C91.8235 16.2554 90.8203 17.2586 90.8203 18.4994Z" fill="#6C8184"/>
<path d="M71.2675 7.2002H75.0163L70.0003 20.4002H66.1195L61.1035 7.2002H64.8523L68.0467 16.4402L71.2675 7.2002Z" fill="#6C8184"/>
<path d="M43.8275 9.47044C44.5139 7.67524 46.1771 6.93604 47.8403 6.93604V10.7376C46.0715 10.5264 43.8275 11.3184 43.8275 14.0905V20.4001H40.4219V7.20004H43.8275V9.47044Z" fill="#6C8184"/>
</g>
<defs>
<clipPath id="clip0_1669_11808">
<rect width="94.44" height="24" fill="white" transform="translate(0.880859)"/>
</clipPath>
</defs>
</svg>
