<svg width="103" height="24" viewBox="0 0 103 24" fill="none" xmlns="http://www.w3.org/2000/svg">
<g clip-path="url(#clip0_1669_11895)">
<mask id="mask0_1669_11895" style="mask-type:luminance" maskUnits="userSpaceOnUse" x="0" y="0" width="103" height="24">
<path d="M102.08 0H0.320312V24H102.08V0Z" fill="white"/>
</mask>
<g mask="url(#mask0_1669_11895)">
<path d="M12.3851 0C5.21991 0 0.320312 4.56 0.320312 12.0648C0.320312 19.23 5.21991 24 12.3851 24C19.5503 24 24.3203 19.23 24.3203 12.0648C24.3203 4.56 19.5503 0 12.3851 0ZM19.5119 19.1916C19.0449 19.6567 18.524 20.0644 17.9603 20.406V10.56L15.8003 9.36V21.36C15.0186 21.5929 14.2139 21.7398 13.4003 21.798V6.018L11.2403 4.818V21.7908C10.4678 21.7271 9.7039 21.5846 8.96031 21.366V10.08L6.80031 11.28V20.4228C4.07511 18.7992 2.48031 15.8628 2.48031 12.06C2.48031 9.0084 3.41271 6.4824 5.17791 4.7544C6.91311 3.0588 9.40551 2.16 12.3851 2.16C15.3647 2.16 17.8151 3.0552 19.5203 4.7472C21.2495 6.468 22.1603 8.9988 22.1603 12.0672C22.1603 15 21.2447 17.46 19.5119 19.1916Z" fill="#6C8184"/>
<path d="M75.4337 6.72021H77.8313L77.8097 17.5202H75.4121L75.4337 6.72021Z" fill="#6C8184"/>
<path d="M76.6229 4.66798C76.2341 4.66798 75.8957 4.53118 75.6077 4.25758C75.3341 3.96958 75.1973 3.63118 75.1973 3.24238C75.1973 2.85358 75.3341 2.52238 75.6077 2.24878C75.8957 1.97518 76.2341 1.83838 76.6229 1.83838C77.0117 1.83838 77.3429 1.97518 77.6165 2.24878C77.9045 2.52238 78.0485 2.85358 78.0485 3.24238C78.0485 3.63118 77.9045 3.96958 77.6165 4.25758C77.3429 4.53118 77.0117 4.66798 76.6229 4.66798Z" fill="#6C8184"/>
<path d="M80.2305 17.5201H82.6497V11.8825C82.6497 10.8601 82.8729 10.0753 83.3193 9.52814C83.7657 8.98094 84.3921 8.71454 85.1985 8.72894C85.6737 8.72894 86.0841 8.82254 86.4297 9.00974C86.7897 9.19694 87.0633 9.52814 87.2505 10.0033C87.4521 10.4641 87.5529 11.1265 87.5529 11.9905V17.5201H89.9721V11.3425C89.9721 9.68654 89.6121 8.46254 88.8921 7.67054C88.1865 6.86414 87.1785 6.46094 85.8681 6.46094C85.0185 6.46094 84.2841 6.67694 83.6649 7.10894C83.2493 7.3892 82.8987 7.76027 82.6128 8.22214L82.4985 6.72014H80.2305V17.5201Z" fill="#6C8184"/>
<path fill-rule="evenodd" clip-rule="evenodd" d="M93.9984 17.0665C94.8192 17.5417 95.7552 17.7793 96.8064 17.7793C97.6272 17.7793 98.3544 17.6641 98.988 17.4337C99.636 17.2033 100.19 16.8721 100.651 16.4401C101.126 16.0081 101.515 15.5041 101.818 14.9281L99.5928 13.9777C99.3624 14.4385 99.0384 14.8201 98.6208 15.1225C98.2032 15.4105 97.6704 15.5545 97.0224 15.5545C96.432 15.5545 95.892 15.4249 95.4024 15.1657C94.9272 14.8921 94.5456 14.5033 94.2576 13.9993C94.0534 13.6234 93.9255 13.1914 93.8737 12.7033H102.034C102.034 11.4073 101.803 10.2913 101.342 9.35534C100.882 8.41934 100.262 7.70654 99.4848 7.21694C98.7216 6.71294 97.8576 6.46094 96.8928 6.46094C95.8272 6.46094 94.8768 6.70574 94.0416 7.19534C93.2208 7.67054 92.5728 8.33294 92.0976 9.18254C91.6224 10.0321 91.3848 11.0113 91.3848 12.1201C91.3848 13.2289 91.6152 14.2081 92.076 15.0577C92.5512 15.9073 93.192 16.5769 93.9984 17.0665ZM99.3733 10.7809C99.336 10.6445 99.294 10.5149 99.2472 10.3921C99.0312 9.78734 98.7144 9.34094 98.2968 9.05294C97.8936 8.75054 97.3968 8.59934 96.8064 8.59934C96.1872 8.59934 95.6544 8.73614 95.208 9.00974C94.7616 9.28334 94.4232 9.68654 94.1928 10.2193C94.1163 10.3915 94.0525 10.5787 94.0014 10.7809H99.3733Z" fill="#6C8184"/>
<path d="M70.5879 2.3999V17.5199H73.0071V2.3999H70.5879Z" fill="#6C8184"/>
<path fill-rule="evenodd" clip-rule="evenodd" d="M66.0567 17.5199L65.9701 15.9076C65.6714 16.3819 65.3043 16.7754 64.8687 17.0879C64.2207 17.5487 63.4431 17.7791 62.5359 17.7791C61.5567 17.7791 60.6999 17.5487 59.9655 17.0879C59.2455 16.6127 58.6767 15.9503 58.2591 15.1007C57.8559 14.2511 57.6543 13.2575 57.6543 12.1199C57.6543 10.9679 57.8559 9.9743 58.2591 9.1391C58.6767 8.2895 59.2455 7.6343 59.9655 7.1735C60.6999 6.6983 61.5567 6.4607 62.5359 6.4607C63.4431 6.4607 64.2207 6.6983 64.8687 7.1735C65.294 7.46936 65.654 7.84536 65.9487 8.30149V2.3999H68.3463V17.5199H66.0567ZM65.5815 13.9127C65.8263 13.3943 65.9487 12.7967 65.9487 12.1199C65.9487 11.4431 65.8263 10.8455 65.5815 10.3271C65.3511 9.8087 65.0199 9.4055 64.5879 9.1175C64.1703 8.8295 63.6807 8.6855 63.1191 8.6855C62.5431 8.6855 62.0319 8.8295 61.5855 9.1175C61.1391 9.4055 60.7863 9.8087 60.5271 10.3271C60.2823 10.8455 60.1527 11.4431 60.1383 12.1199C60.1527 12.7967 60.2823 13.3943 60.5271 13.9127C60.7863 14.4311 61.1391 14.8415 61.5855 15.1439C62.0463 15.4319 62.5647 15.5759 63.1407 15.5759C63.6879 15.5759 64.1703 15.4319 64.5879 15.1439C65.0199 14.8415 65.3511 14.4311 65.5815 13.9127Z" fill="#6C8184"/>
<path d="M53.5859 2.3999V17.5199H56.0051V2.3999H53.5859Z" fill="#6C8184"/>
<path fill-rule="evenodd" clip-rule="evenodd" d="M46.4361 17.7793C45.3561 17.7793 44.3913 17.5417 43.5417 17.0665C42.7065 16.5769 42.0513 15.9073 41.5761 15.0577C41.1009 14.2081 40.8633 13.2289 40.8633 12.1201C40.8633 11.0113 41.0937 10.0321 41.5545 9.18254C42.0297 8.33294 42.6849 7.67054 43.5201 7.19534C44.3553 6.70574 45.3129 6.46094 46.3929 6.46094C47.4729 6.46094 48.4305 6.70574 49.2657 7.19534C50.101 7.67054 50.7489 8.33294 51.2097 9.18254C51.6849 10.0321 51.9225 11.0113 51.9225 12.1201C51.9225 13.2289 51.6921 14.2081 51.2313 15.0577C50.7705 15.9073 50.1225 16.5769 49.2873 17.0665C48.4521 17.5417 47.5017 17.7793 46.4361 17.7793ZM46.4361 15.5545C47.0265 15.5545 47.5521 15.4105 48.0129 15.1225C48.4737 14.8201 48.8337 14.4169 49.0929 13.9129C49.3521 13.3945 49.4817 12.7969 49.4817 12.1201C49.4817 11.4433 49.345 10.8529 49.0714 10.3489C48.8121 9.83054 48.4521 9.42734 47.9913 9.13934C47.5305 8.83694 46.9977 8.68574 46.3929 8.68574C45.7881 8.68574 45.2553 8.82974 44.7945 9.11774C44.3337 9.40574 43.9737 9.80894 43.7145 10.3273C43.4553 10.8457 43.3257 11.4433 43.3257 12.1201C43.3257 12.7969 43.4553 13.3945 43.7145 13.9129C43.9881 14.4169 44.3553 14.8201 44.8161 15.1225C45.2913 15.4105 45.8313 15.5545 46.4361 15.5545Z" fill="#6C8184"/>
<path fill-rule="evenodd" clip-rule="evenodd" d="M31.6029 21.9265C32.2221 22.0561 32.9133 22.1209 33.6765 22.1209C34.7853 22.1209 35.7573 21.8977 36.5925 21.4513C37.4277 21.0193 38.0757 20.3713 38.5365 19.5073C38.9973 18.6577 39.2277 17.6209 39.2277 16.3969V6.72014H36.8085V8.46167C36.486 7.92526 36.0828 7.48875 35.5989 7.15214C34.9509 6.69134 34.1877 6.46094 33.3093 6.46094C32.3301 6.46094 31.4733 6.69134 30.7389 7.15214C30.0189 7.61294 29.4501 8.25374 29.0325 9.07454C28.6293 9.89534 28.4277 10.8673 28.4277 11.9905C28.4277 13.0417 28.6293 13.9705 29.0325 14.7769C29.4501 15.5689 30.0189 16.1881 30.7389 16.6345C31.4733 17.0809 32.3301 17.3041 33.3093 17.3041C34.1877 17.3041 34.9509 17.0881 35.5989 16.6561C36.0828 16.3301 36.486 15.9118 36.8085 15.4012V16.4617C36.8085 17.2681 36.6717 17.9305 36.3981 18.4489C36.1245 18.9673 35.7429 19.3489 35.2533 19.5937C34.7637 19.8529 34.2093 19.9825 33.5901 19.9825C33.0141 19.9825 32.4957 19.9249 32.0349 19.8097C31.5741 19.6945 31.1709 19.5577 30.8253 19.3993C30.4941 19.2553 30.2277 19.1329 30.0261 19.0321L29.0973 20.9761C29.3277 21.1345 29.6517 21.3001 30.0693 21.4729C30.4869 21.6457 30.9981 21.7969 31.6029 21.9265ZM35.4045 14.8201C35.0013 15.1081 34.5261 15.2521 33.9789 15.2521C33.4029 15.2521 32.8917 15.1081 32.4453 14.8201C31.9989 14.5321 31.6461 14.1433 31.3869 13.6537C31.1421 13.1497 31.0197 12.5737 31.0197 11.9257C31.0197 11.2633 31.1421 10.6873 31.3869 10.1977C31.6461 9.69374 31.9917 9.30494 32.4237 9.03134C32.8701 8.74334 33.3813 8.59934 33.9573 8.59934C34.5045 8.59934 34.9869 8.74334 35.4045 9.03134C35.8221 9.30494 36.1461 9.69374 36.3765 10.1977C36.6069 10.6873 36.7221 11.2633 36.7221 11.9257C36.7221 12.5737 36.6069 13.1497 36.3765 13.6537C36.1461 14.1433 35.8221 14.5321 35.4045 14.8201Z" fill="#6C8184"/>
</g>
</g>
<defs>
<clipPath id="clip0_1669_11895">
<rect width="101.76" height="24" fill="white" transform="translate(0.320312)"/>
</clipPath>
</defs>
</svg>
