<svg width="85" height="24" viewBox="0 0 85 24" fill="none" xmlns="http://www.w3.org/2000/svg">
<g clip-path="url(#clip0_1669_11832)">
<mask id="mask0_1669_11832" style="mask-type:luminance" maskUnits="userSpaceOnUse" x="0" y="0" width="85" height="24">
<path d="M84.3195 0H0.439453V24H84.3195V0Z" fill="white"/>
</mask>
<g mask="url(#mask0_1669_11832)">
<path d="M16.7591 4.32C16.7591 6.70588 14.825 8.64 12.4391 8.64C10.0533 8.64 8.11914 6.70588 8.11914 4.32C8.11914 1.93412 10.0533 0 12.4391 0C14.825 0 16.7591 1.93412 16.7591 4.32Z" fill="#6C8184"/>
<path d="M0.965053 7.52051C0.813853 7.52051 0.663853 7.52051 0.515053 7.53251C0.464976 7.97315 0.439736 8.41625 0.439453 8.85971C0.439453 15.4597 5.81185 20.8141 12.4395 20.8141C12.5907 20.8141 12.7395 20.8141 12.8895 20.8033H13.0395C19.3887 20.4913 24.4395 15.2653 24.4395 8.86331C24.4391 8.41988 24.4143 7.97681 24.3651 7.53611C18.0159 7.84811 12.9651 13.0741 12.9651 19.4761C12.9651 12.8737 7.59265 7.52051 0.965053 7.52051Z" fill="#6C8184"/>
<path d="M13.0515 21.0394H12.8727C12.8032 21.0394 12.7323 21.0418 12.6606 21.0441C12.5874 21.0466 12.5134 21.049 12.4395 21.049C9.62066 21.0497 6.88785 20.0784 4.70187 18.2987C2.51587 16.5191 1.01045 14.0401 0.439453 11.2798C0.559453 18.3262 5.88745 23.9998 12.4395 23.9998C18.9867 23.9998 24.3087 18.3322 24.4395 11.2894C23.8956 13.9494 22.4807 16.3523 20.4183 18.1181C18.3557 19.8839 15.7636 20.9118 13.0515 21.0394Z" fill="#6C8184"/>
<path d="M74.9762 7.50732C76.4162 7.50732 77.5826 7.94652 78.4754 8.82492C79.3682 9.68892 79.8146 10.9417 79.8146 12.5833V19.5601H77.8706V12.8641C77.8706 11.6833 77.5754 10.7833 76.985 10.1641C76.3946 9.53052 75.5882 9.21372 74.5658 9.21372C73.529 9.21372 72.701 9.53772 72.0818 10.1857C71.477 10.8337 71.1746 11.7769 71.1746 13.0153V19.5601H69.209V7.72332H71.1746V9.40812C71.5634 8.80332 72.089 8.33532 72.7514 8.00412C73.4282 7.67292 74.1698 7.50732 74.9762 7.50732Z" fill="#6C8184"/>
<path d="M83.0033 19.6896C82.6289 19.6896 82.3121 19.56 82.0529 19.3008C81.7937 19.0416 81.6641 18.7248 81.6641 18.3504C81.6641 17.976 81.7937 17.6592 82.0529 17.4C82.3121 17.1408 82.6289 17.0112 83.0033 17.0112C83.3633 17.0112 83.6657 17.1408 83.9105 17.4C84.1697 17.6592 84.2993 17.976 84.2993 18.3504C84.2993 18.7248 84.1697 19.0416 83.9105 19.3008C83.6657 19.56 83.3633 19.6896 83.0033 19.6896Z" fill="#6C8184"/>
<path fill-rule="evenodd" clip-rule="evenodd" d="M67.1962 14.376C67.2394 13.9584 67.261 13.5624 67.261 13.188C67.261 12.108 67.0234 11.1432 66.5482 10.2936C66.0874 9.42961 65.425 8.75281 64.561 8.26321C63.697 7.77361 62.7034 7.52881 61.5802 7.52881C60.4282 7.52881 59.4058 7.78081 58.513 8.28481C57.6346 8.77441 56.9506 9.48001 56.461 10.4016C55.9714 11.3232 55.7266 12.396 55.7266 13.62C55.7266 14.844 55.9786 15.924 56.4826 16.86C56.9866 17.7816 57.6778 18.4944 58.5562 18.9984C59.449 19.5024 60.457 19.7544 61.5802 19.7544C62.9914 19.7544 64.1722 19.4016 65.1226 18.696C66.073 17.976 66.7066 17.0472 67.0234 15.9096H64.9066C64.6762 16.572 64.273 17.1048 63.697 17.508C63.1354 17.8968 62.4298 18.0912 61.5802 18.0912C60.5434 18.0912 59.6578 17.7672 58.9234 17.1192C58.2034 16.4568 57.8074 15.5424 57.7354 14.376H67.1962ZM64.7338 10.8552C65.065 11.388 65.2306 12.0288 65.2306 12.7776H57.757C57.8578 11.6544 58.2538 10.776 58.945 10.1424C59.6506 9.50881 60.5002 9.19201 61.4938 9.19201C62.185 9.19201 62.8114 9.33601 63.373 9.62401C63.949 9.89761 64.4026 10.308 64.7338 10.8552Z" fill="#6C8184"/>
<path d="M49.4081 17.7455L53.0801 7.72314H55.1753L50.5313 19.5599H48.2417L43.5977 7.72314H45.7145L49.4081 17.7455Z" fill="#6C8184"/>
<path fill-rule="evenodd" clip-rule="evenodd" d="M31.0528 10.4232C30.5632 11.3304 30.3184 12.3888 30.3184 13.5984C30.3184 14.7936 30.5632 15.8592 31.0528 16.7952C31.5424 17.7312 32.212 18.4584 33.0616 18.9768C33.9112 19.4952 34.8616 19.7544 35.9128 19.7544C36.9352 19.7544 37.828 19.5312 38.5912 19.0848C39.3688 18.624 39.952 18.048 40.3408 17.3568V19.56H42.328V7.72321H40.3408V9.88321C39.9664 9.20641 39.3976 8.64481 38.6344 8.19841C37.8712 7.75201 36.9712 7.52881 35.9344 7.52881C34.8832 7.52881 33.9256 7.78081 33.0616 8.28481C32.212 8.78881 31.5424 9.50161 31.0528 10.4232ZM39.8008 11.2872C40.1608 11.9496 40.3408 12.7272 40.3408 13.62C40.3408 14.5128 40.1608 15.2976 39.8008 15.9744C39.4408 16.6368 38.9512 17.148 38.332 17.508C37.7272 17.8536 37.0576 18.0264 36.3232 18.0264C35.5888 18.0264 34.9192 17.8536 34.3144 17.508C33.7096 17.148 33.2272 16.6368 32.8672 15.9744C32.5072 15.2976 32.3272 14.5056 32.3272 13.5984C32.3272 12.7056 32.5072 11.928 32.8672 11.2656C33.2272 10.6032 33.7096 10.0992 34.3144 9.75361C34.9192 9.40801 35.5888 9.23521 36.3232 9.23521C37.0576 9.23521 37.7272 9.41521 38.332 9.77521C38.9512 10.1208 39.4408 10.6248 39.8008 11.2872Z" fill="#6C8184"/>
</g>
</g>
<defs>
<clipPath id="clip0_1669_11832">
<rect width="83.88" height="24" fill="white" transform="translate(0.439453)"/>
</clipPath>
</defs>
</svg>
