<svg width="96" height="24" viewBox="0 0 96 24" fill="none" xmlns="http://www.w3.org/2000/svg">
<g clip-path="url(#clip0_1669_11885)">
<mask id="mask0_1669_11885" style="mask-type:luminance" maskUnits="userSpaceOnUse" x="0" y="0" width="96" height="24">
<path d="M95.88 0H0V24H95.88V0Z" fill="white"/>
</mask>
<g mask="url(#mask0_1669_11885)">
<path fill-rule="evenodd" clip-rule="evenodd" d="M13.8345 0.155762L18.4225 5.59488L19.4926 15.6457L11.3946 24.1558L1.97266 15.6178L6.7168 3.54666L13.8345 0.155762ZM7.12823 4.47336L10.9125 8.47102L7.04243 14.0842L2.98646 15.0118L7.12823 4.47336ZM3.157 15.7153L10.3494 22.233L7.05076 14.8249L3.157 15.7153ZM7.84066 14.824L11.4862 23.0111L18.3405 15.8081L7.84066 14.824ZM18.6563 14.6065L17.7673 6.25763L12.0442 8.55654L18.6563 14.6065ZM11.469 8.00769L17.4767 5.59445L13.6424 1.04877L7.60457 3.92524L11.469 8.00769ZM11.4379 8.98158L18.0769 15.0562L7.90688 14.103L11.4379 8.98158Z" fill="#6C8184"/>
<path d="M48.2413 19.0175C46.2085 19.0175 44.4925 18.3575 43.1197 17.0111C41.7469 15.6647 41.0605 13.9751 41.0605 11.9687C41.0605 9.96232 41.7469 8.29912 43.1197 6.95272C44.4925 5.60632 46.2085 4.91992 48.2413 4.91992C49.9573 4.91992 51.4357 5.42152 52.7293 6.42472C54.0229 7.40152 54.8413 8.69512 55.1845 10.2527H52.7821C52.0693 8.37832 50.3533 7.11112 48.2413 7.11112C46.8421 7.11112 45.7069 7.58632 44.7829 8.51032C43.8589 9.43432 43.4101 10.5695 43.4101 11.9687C43.4101 13.3679 43.8589 14.5295 44.7829 15.4535C45.7069 16.3775 46.8421 16.8263 48.2413 16.8263C50.3533 16.8263 52.0693 15.5591 52.7821 13.6847H55.1845C54.8413 15.2423 54.0229 16.5359 52.7293 17.5391C51.4357 18.5159 49.9573 19.0175 48.2413 19.0175Z" fill="#6C8184"/>
<path d="M77.6076 6.31912C76.6836 5.39512 75.4692 4.91992 73.9644 4.91992C71.7204 4.91992 70.0836 5.84392 69.1068 7.71832C68.3412 5.94952 66.6516 4.91992 64.5132 4.91992C62.5596 4.91992 61.0812 5.65912 60.1044 7.16392V5.23672H57.834V18.7007H60.1044V10.7015C60.1044 8.56312 61.5828 7.11112 63.8004 7.11112C65.9124 7.11112 67.2852 8.51032 67.2852 10.6487V18.7007H69.5556V10.7015C69.5556 8.56312 71.034 7.11112 73.2516 7.11112C75.3636 7.11112 76.7364 8.51032 76.7364 10.6487V18.7007H79.0068V10.0151C79.0068 8.45752 78.5316 7.24312 77.6076 6.31912Z" fill="#6C8184"/>
<path fill-rule="evenodd" clip-rule="evenodd" d="M95.7875 12.8399V12.8397C95.8118 12.5268 95.8342 12.2366 95.8342 11.9687C95.8342 9.96232 95.1478 8.29912 93.775 6.95272C92.4286 5.60632 90.7126 4.91992 88.6798 4.91992C86.647 4.91992 84.931 5.60632 83.5582 6.95272C82.2118 8.29912 81.5254 9.96232 81.5254 11.9687C81.5254 13.9751 82.2118 15.6647 83.5582 17.0111C84.931 18.3575 86.647 19.0175 88.6798 19.0175C91.9534 19.0175 94.5934 17.1695 95.5702 14.3975H93.0622C92.3494 15.9023 90.6862 16.9319 88.6798 16.9319C87.4654 16.9319 86.4094 16.5623 85.5382 15.8231C84.667 15.0839 84.139 14.1071 83.9542 12.9191H95.7814L95.7875 12.8399ZM93.4054 10.8863H83.9806C84.4294 8.56312 86.2774 7.00552 88.6798 7.00552C91.0822 7.00552 92.983 8.58952 93.4054 10.8863Z" fill="#6C8184"/>
<path fill-rule="evenodd" clip-rule="evenodd" d="M39.0998 5.23633H28.8566V7.42754H36.8294V10.0675H32.8166C31.4174 10.0675 30.2558 10.4899 29.3318 11.3611C28.4078 12.206 27.959 13.262 27.959 14.5292C27.959 15.8228 28.4078 16.8788 29.3318 17.75C30.2558 18.5948 31.4174 19.0172 32.8166 19.0172C34.6382 19.0172 36.2222 18.2252 37.067 16.958V18.7004H39.0998V5.23633ZM36.8294 14.2916C36.8294 15.8756 35.3246 16.958 33.107 16.958C31.4966 16.958 30.3086 15.9284 30.3086 14.5292C30.3086 13.1564 31.4966 12.1268 33.107 12.1268H36.8294V14.2916Z" fill="#6C8184"/>
</g>
</g>
<defs>
<clipPath id="clip0_1669_11885">
<rect width="95.88" height="24" fill="white"/>
</clipPath>
</defs>
</svg>
