<svg width="21" height="20" viewBox="0 0 21 20" fill="none" xmlns="http://www.w3.org/2000/svg">
<g clip-path="url(#clip0_3003_9849)">
<rect x="0.5" width="20" height="20" rx="10" fill="white"/>
<path fill-rule="evenodd" clip-rule="evenodd" d="M16.6697 10.1478C16.6697 9.68687 16.6283 9.24369 16.5515 8.81824H10.4297V11.3326H13.9279C13.7772 12.1451 13.3192 12.8335 12.6308 13.2944V14.9253H14.7315C15.9606 13.7937 16.6697 12.1273 16.6697 10.1478Z" fill="#4285F4"/>
<path fill-rule="evenodd" clip-rule="evenodd" d="M10.4297 16.5C12.1847 16.5 13.6561 15.9179 14.7315 14.9252L12.6309 13.2943C12.0488 13.6843 11.3043 13.9148 10.4297 13.9148C8.73677 13.9148 7.30382 12.7713 6.79268 11.235H4.62109V12.9191C5.69064 15.0434 7.88882 16.5 10.4297 16.5Z" fill="#34A853"/>
<path fill-rule="evenodd" clip-rule="evenodd" d="M6.79264 11.235C6.66264 10.845 6.58878 10.4284 6.58878 10C6.58878 9.57161 6.66264 9.15502 6.79264 8.76502V7.08093H4.62105C4.18082 7.95843 3.92969 8.95116 3.92969 10C3.92969 11.0489 4.18082 12.0416 4.62105 12.9191L6.79264 11.235Z" fill="#FBBC05"/>
<path fill-rule="evenodd" clip-rule="evenodd" d="M10.4297 6.08523C11.384 6.08523 12.2409 6.41318 12.9145 7.05727L14.7788 5.19295C13.6531 4.14409 12.1818 3.5 10.4297 3.5C7.88882 3.5 5.69064 4.95659 4.62109 7.08091L6.79268 8.765C7.30382 7.22864 8.73677 6.08523 10.4297 6.08523Z" fill="#EA4335"/>
</g>
<defs>
<clipPath id="clip0_3003_9849">
<rect width="20" height="20" fill="white" transform="translate(0.5)"/>
</clipPath>
</defs>
</svg>
