<svg width="116" height="24" viewBox="0 0 116 24" fill="none" xmlns="http://www.w3.org/2000/svg">
<path d="M34.1953 19.125C32.9401 19.125 32.0339 18.8125 31.4766 18.1875C30.9245 17.5625 30.6484 16.5677 30.6484 15.2031V13.8594H33.3672V15.5781C33.3672 15.8958 33.4141 16.1458 33.5078 16.3281C33.6068 16.5052 33.776 16.5938 34.0156 16.5938C34.2656 16.5938 34.4375 16.5208 34.5312 16.375C34.6302 16.2292 34.6797 15.9896 34.6797 15.6562C34.6797 15.2344 34.638 14.8828 34.5547 14.6016C34.4714 14.3151 34.3255 14.0443 34.1172 13.7891C33.9141 13.5286 33.6302 13.2266 33.2656 12.8828L32.0312 11.7109C31.1094 10.8411 30.6484 9.84635 30.6484 8.72656C30.6484 7.55469 30.9193 6.66146 31.4609 6.04688C32.0078 5.43229 32.7969 5.125 33.8281 5.125C35.0885 5.125 35.9818 5.46094 36.5078 6.13281C37.0391 6.80469 37.3047 7.82552 37.3047 9.19531H34.5078V8.25C34.5078 8.0625 34.4531 7.91667 34.3438 7.8125C34.2396 7.70833 34.0964 7.65625 33.9141 7.65625C33.6953 7.65625 33.5339 7.71875 33.4297 7.84375C33.3307 7.96354 33.2812 8.11979 33.2812 8.3125C33.2812 8.50521 33.3333 8.71354 33.4375 8.9375C33.5417 9.16146 33.7474 9.41927 34.0547 9.71094L35.6406 11.2344C35.9583 11.5365 36.25 11.8568 36.5156 12.1953C36.7812 12.5286 36.9948 12.9193 37.1562 13.3672C37.3177 13.8099 37.3984 14.3516 37.3984 14.9922C37.3984 16.2839 37.1589 17.2969 36.6797 18.0312C36.2057 18.7604 35.3776 19.125 34.1953 19.125ZM41.5234 19.125C40.5286 19.125 39.7266 18.8151 39.1172 18.1953C38.513 17.5755 38.2109 16.7083 38.2109 15.5938V9.25C38.2109 7.91667 38.474 6.89583 39 6.1875C39.5312 5.47917 40.3932 5.125 41.5859 5.125C42.237 5.125 42.8151 5.24479 43.3203 5.48438C43.8307 5.72396 44.2318 6.08333 44.5234 6.5625C44.8151 7.03646 44.9609 7.63542 44.9609 8.35938V10.7344H42.2266V8.70312C42.2266 8.29167 42.1745 8.01562 42.0703 7.875C41.9661 7.72917 41.8047 7.65625 41.5859 7.65625C41.3307 7.65625 41.1589 7.75 41.0703 7.9375C40.9818 8.11979 40.9375 8.36458 40.9375 8.67188V15.5547C40.9375 15.9349 40.9922 16.2031 41.1016 16.3594C41.2161 16.5156 41.3776 16.5938 41.5859 16.5938C41.8203 16.5938 41.9844 16.4974 42.0781 16.3047C42.1771 16.112 42.2266 15.862 42.2266 15.5547V13.0781H44.9922V15.6797C44.9922 16.888 44.6875 17.7656 44.0781 18.3125C43.4688 18.8542 42.6172 19.125 41.5234 19.125ZM45.9141 19V5.25H48.6484V10.1641H49.9453V5.25H52.6797V19H49.9453V12.7656H48.6484V19H45.9141ZM53.8984 19V5.25H59.3984V7.90625H56.6953V10.5859H59.2891V13.1719H56.6953V16.3203H59.5781V19H53.8984ZM60.4922 19V5.25H64.6797L65.8359 13.6328L66.9844 5.25H71.2109V19H68.6953V9.09375L67.1172 19H64.6484L62.9766 9.09375V19H60.4922ZM72.0547 19L73.3828 5.25H78.0469L79.3516 19H76.75L76.5547 16.7812H74.8984L74.7266 19H72.0547ZM75.0938 14.5859H76.3438L75.7422 7.59375H75.6172L75.0938 14.5859ZM83.9453 19V5.25H89.4453V7.92969H86.7109V10.1172H89.3047V12.7656H86.7109V19H83.9453ZM90.3359 19V5.25H93.0859V16.6562H95.9141V19H90.3359ZM99.9766 19.125C98.8776 19.125 98.0365 18.7943 97.4531 18.1328C96.875 17.4661 96.5859 16.5052 96.5859 15.25V8.71875C96.5859 7.54167 96.8724 6.64844 97.4453 6.03906C98.0234 5.42969 98.8672 5.125 99.9766 5.125C101.086 5.125 101.927 5.42969 102.5 6.03906C103.078 6.64844 103.367 7.54167 103.367 8.71875V15.25C103.367 16.5052 103.076 17.4661 102.492 18.1328C101.914 18.7943 101.076 19.125 99.9766 19.125ZM100 16.5938C100.417 16.5938 100.625 16.1901 100.625 15.3828V8.67188C100.625 7.99479 100.422 7.65625 100.016 7.65625C99.5573 7.65625 99.3281 8.0026 99.3281 8.69531V15.3984C99.3281 15.8255 99.3802 16.1328 99.4844 16.3203C99.5885 16.5026 99.7604 16.5938 100 16.5938ZM105.555 19L104.078 5.25H106.766L107.523 13.9297L108.297 5.25H110.859L111.594 13.9297L112.328 5.25H115.047L113.547 19H110.25L109.562 12.3828L108.906 19H105.555Z" fill="#6C8184"/>
<path fill-rule="evenodd" clip-rule="evenodd" d="M6.08031 0C2.89915 0 0.320312 2.57884 0.320312 5.76V18.24C0.320312 21.4212 2.89915 24 6.08031 24H18.5603C21.7415 24 24.3203 21.4212 24.3203 18.24V5.76C24.3203 2.57884 21.7415 0 18.5603 0H6.08031ZM13.5709 10.0536L16.0376 7.58651L16.0492 7.57489C16.1083 7.51578 16.1599 7.45207 16.2042 7.38492L16.2042 7.3849C16.5142 6.91477 16.4626 6.2755 16.0492 5.86196L13.542 3.35447L13.5309 3.34348C13.4945 3.30804 13.4565 3.27534 13.4171 3.24539C13.3958 3.22926 13.3742 3.21393 13.3521 3.19939C12.8822 2.88923 12.2426 2.94092 11.8293 3.35447L6.6743 8.50923C6.61556 8.56809 6.56412 8.63153 6.51999 8.69839C6.21108 9.16645 6.26036 9.80261 6.66945 10.2166L6.6743 10.2221L10.0391 13.586L10.0385 13.5866L10.0378 13.5859L7.46757 16.1552V16.1554C6.99519 16.6281 6.99519 17.3957 7.46757 17.8684L9.89003 20.2908C10.3386 20.7398 10.9205 20.9755 11.509 20.9982C11.5407 20.9994 11.5723 21 11.604 21C12.2241 21 12.8443 20.7636 13.3167 20.2909L17.9775 15.631C18.9223 14.6855 18.9223 13.1504 17.9775 12.2049L17.9772 12.2047L17.9775 12.2045L15.1048 9.33201C15.0264 9.25365 14.9046 9.23914 14.81 9.2969L13.5709 10.0536Z" fill="#6C8184"/>
</svg>
